<?xml version="1.0" standalone="no"?><!DOCTYPE svg PUBLIC "-//W3C//DTD SVG 1.1//EN" "http://www.w3.org/Graphics/SVG/1.1/DTD/svg11.dtd"><svg t="1544175047374" class="icon" style="" viewBox="0 0 1024 1024" version="1.1" xmlns="http://www.w3.org/2000/svg" p-id="7787" xmlns:xlink="http://www.w3.org/1999/xlink" width="22" height="22"><defs><style type="text/css"></style></defs><path d="M995.328 540.672h-57.344c-16.384 0-28.672-12.288-28.672-28.672s12.288-28.672 28.672-28.672h57.344c16.384 0 28.672 12.288 28.672 28.672 0 16.384-12.288 28.672-28.672 28.672z m-161.792 333.824l-30.72-30.72c-12.288-12.288-12.288-28.672 0-38.912 12.288-12.288 28.672-12.288 38.912 0l30.72 30.72c12.288 12.288 12.288 28.672 0 38.912-8.192 12.288-26.624 12.288-38.912 0z m10.24-653.312c-12.288 12.288-28.672 12.288-38.912 0-12.288-12.288-12.288-28.672 0-38.912l30.72-30.72c12.288-12.288 28.672-12.288 38.912 0 12.288 12.288 12.288 28.672 0 38.912l-30.72 30.72zM512 854.016c-188.416 0-342.016-151.552-342.016-342.016S323.584 169.984 512 169.984 854.016 323.584 854.016 512 700.416 854.016 512 854.016z m0-624.64c-155.648 0-282.624 126.976-282.624 282.624S356.352 794.624 512 794.624 794.624 667.648 794.624 512 667.648 229.376 512 229.376z m0-114.688c-16.384 0-28.672-12.288-28.672-28.672V28.672c0-16.384 12.288-28.672 28.672-28.672 16.384 0 28.672 12.288 28.672 28.672v57.344c0 16.384-12.288 28.672-28.672 28.672zM180.224 221.184L149.504 190.464c-12.288-12.288-12.288-28.672 0-38.912s28.672-12.288 38.912 0l30.72 30.72c12.288 12.288 12.288 28.672 0 38.912s-28.672 10.24-38.912 0zM86.016 540.672H28.672C12.288 540.672 0 528.384 0 512s12.288-28.672 28.672-28.672h57.344c16.384 0 28.672 12.288 28.672 28.672 0 16.384-12.288 28.672-28.672 28.672z m94.208 262.144c12.288-12.288 28.672-12.288 38.912 0 12.288 12.288 12.288 28.672 0 38.912l-30.72 30.72c-12.288 12.288-28.672 12.288-38.912 0-12.288-12.288-12.288-28.672 0-38.912l30.72-30.72zM512 909.312c16.384 0 28.672 12.288 28.672 28.672v57.344c0 16.384-12.288 28.672-28.672 28.672s-28.672-12.288-28.672-28.672v-57.344c0-16.384 12.288-28.672 28.672-28.672z" p-id="7788"></path></svg>