<?xml version="1.0" standalone="no"?><!DOCTYPE svg PUBLIC "-//W3C//DTD SVG 1.1//EN" "http://www.w3.org/Graphics/SVG/1.1/DTD/svg11.dtd"><svg t="1544175143335" class="icon" style="" viewBox="0 0 1024 1024" version="1.1" xmlns="http://www.w3.org/2000/svg" p-id="8661" xmlns:xlink="http://www.w3.org/1999/xlink" width="22" height="22"><defs><style type="text/css"></style></defs><path d="M151.466667 507.733333v-206.933333c0-70.4 64-147.2 125.866666-149.333333h439.466667c81.066667 2.133333 147.2 78.933333 147.2 149.333333v420.266667c0 70.4-78.933333 149.333333-147.2 149.333333h-142.933333c-12.8 0-40.533333 0-40.533334 34.133333s29.866667 32 40.533334 32h142.933333c117.333333 0 213.333333-96 213.333333-215.466666V300.8C928 181.333333 832 85.333333 714.666667 85.333333H298.666667C181.333333 85.333333 85.333333 181.333333 85.333333 300.8v206.933333C85.333333 533.333333 85.333333 554.666667 119.466667 554.666667c32 0 32-21.333333 32-46.933334z" fill="#3D3D3D" p-id="8662"></path><path d="M243.2 945.066667c-91.733333 0-164.266667-74.666667-164.266667-164.266667 0-91.733333 74.666667-164.266667 164.266667-164.266667s164.266667 74.666667 164.266667 164.266667c0 91.733333-74.666667 164.266667-164.266667 164.266667z m0-268.8c-57.6 0-104.533333 46.933333-104.533333 104.533333s46.933333 104.533333 104.533333 104.533333 104.533333-46.933333 104.533333-104.533333-46.933333-104.533333-104.533333-104.533333zM315.733333 311.466667c-19.2 0-27.733333 12.8-27.733333 27.733333 0 19.2 12.8 27.733333 27.733333 27.733333l375.466667-2.133333c19.2 0 27.733333-12.8 27.733333-27.733333s-12.8-27.733333-27.733333-27.733334l-375.466667 2.133334zM315.733333 492.8c-19.2 0-27.733333 12.8-27.733333 27.733333 0 19.2 12.8 27.733333 27.733333 27.733334l375.466667-2.133334c19.2 0 27.733333-12.8 27.733333-27.733333s-12.8-27.733333-27.733333-27.733333l-375.466667 2.133333z" fill="#3D3D3D" p-id="8663"></path></svg>