<?xml version="1.0" standalone="no"?><!DOCTYPE svg PUBLIC "-//W3C//DTD SVG 1.1//EN" "http://www.w3.org/Graphics/SVG/1.1/DTD/svg11.dtd"><svg t="1544175273407" class="icon" style="" viewBox="0 0 1024 1024" version="1.1" xmlns="http://www.w3.org/2000/svg" p-id="11220" xmlns:xlink="http://www.w3.org/1999/xlink" width="22" height="22"><defs><style type="text/css"></style></defs><path d="M528.85599999 585.19546667a596.96784 596.96784 0 0 0-45.38463998 80.31856 554.11776 554.11776 0 0 0-31.90768001 86.37103999c-8.25216 29.70688-13.47808 59.78224001-15.67888 90.22048001h68.768c2.56032-34.8376 7.70112-67.47664 15.40224-97.92272 7.70112-30.43712 17.69152-59.31856001 29.9824-86.64544 12.28304-27.3168 26.68064-53.17312 43.18496001-77.56784 16.50319999-24.38575999 34.8376-47.9472 55.01215999-70.69216v-52.26256001H384.7232v56.11312001h199.69824c-19.80608 22.37424-38.32976 46.40047999-55.56432 72.06752z" p-id="11221"></path><path d="M877.14912 74.80474667H810.5696V21.97322667c0-7.52976-6.31904-13.72448-14.11536-13.72447999h-38.32528c-7.97216 0-14.11423999 6.14432-14.11424 13.72447999v52.83152H278.12384V21.97322667c0-7.52976-6.31904-13.72448-14.11423999-13.72447999h-38.32640001c-7.97216 0-14.11423999 6.14432-14.11424 13.72447999v52.83152h-66.57952001c-73.62655999 0-133.08847999 59.54928-133.08847999 133.00672v665.76608c0 73.30288 59.58511999 133.00672 133.08847999 133.00672h732.1608c73.62768 0 133.08847999-59.54928 133.08848001-133.00672V207.81146667c-0.00112-73.30288-59.58736-133.00672-133.0896-133.00672zM943.6816 873.57866667c0 36.74272-29.70576 66.45184-66.53136001 66.45184H144.98832c-36.68784 0-66.53136-29.85024-66.53135999-66.45184V341.02762667h865.22351999V873.57866667z m0-599.10703999H78.45696001v-66.66016001c0-36.74272 29.70576-66.45184 66.53135999-66.45184001h66.57951999v52.83264001c0 7.52976 6.31904 13.72448 14.11424001 13.72448h38.3264c7.97216 0 14.11423999-6.14432 14.11424-13.72448v-52.83264001h465.88976v52.83264001c0 7.52976 6.32016 13.72448 14.11424 13.72448h38.3264c7.97328 0 14.11423999-6.14432 14.11424001-13.72448v-52.83264001h66.57951999c36.68784 0 66.53136 29.85024 66.53135999 66.45184001v66.66016001z" p-id="11222"></path></svg>