<?xml version="1.0" standalone="no"?><!DOCTYPE svg PUBLIC "-//W3C//DTD SVG 1.1//EN" "http://www.w3.org/Graphics/SVG/1.1/DTD/svg11.dtd"><svg t="1545964932676" class="icon" style="" viewBox="0 0 1024 1024" version="1.1" xmlns="http://www.w3.org/2000/svg" p-id="6601" xmlns:xlink="http://www.w3.org/1999/xlink" width="14" height="14"><defs><style type="text/css"></style></defs><path d="M512 1024C229.229714 1024 0 794.770286 0 512S229.229714 0 512 0s512 229.229714 512 512-229.229714 512-512 512z m0-80.822857c238.116571 0 431.177143-193.060571 431.177143-431.177143C943.177143 273.883429 750.08 80.822857 512 80.822857 273.883429 80.822857 80.822857 273.92 80.822857 512c0 238.116571 193.060571 431.177143 431.177143 431.177143z m-53.906286-538.953143h107.812572v377.234286h-107.812572V404.224z m0-161.682286h107.812572v107.776h-107.812572V242.541714z" p-id="6602" fill="#8a8a8a"></path></svg>