<?xml version="1.0" standalone="no"?><!DOCTYPE svg PUBLIC "-//W3C//DTD SVG 1.1//EN" "http://www.w3.org/Graphics/SVG/1.1/DTD/svg11.dtd"><svg t="1545898553815" class="icon" style="" viewBox="0 0 1061 1024" version="1.1" xmlns="http://www.w3.org/2000/svg" p-id="4667" xmlns:xlink="http://www.w3.org/1999/xlink" width="149.203125" height="144"><defs><style type="text/css"></style></defs><path d="M950.848 365.728q0-45.728-32-77.728t-77.728-32l-36.576 0 0 219.424 36.576 0q45.728 0 77.728-32t32-77.728zM0 804.576l1024 0q0 60.576-42.848 103.424t-103.424 42.848l-731.424 0q-60.576 0-103.424-42.848t-42.848-103.424zM1060.576 365.728q0 90.848-64.288 155.136t-155.136 64.288l-36.576 0 0 18.272q0 52.576-37.728 90.272t-90.272 37.728l-402.272 0q-52.576 0-90.272-37.728t-37.728-90.272l0-420.576q0-14.848 10.848-25.728t25.728-10.848l658.272 0q90.848 0 155.136 64.288t64.288 155.136z" p-id="4668" fill="#ffffff"></path></svg>